<svg width="24" height="21" viewBox="0 0 24 21" fill="none" xmlns="http://www.w3.org/2000/svg">
<path d="M11.2175 1.88951L11.8725 2.65511L12.6042 1.88951C15.179 -0.685229 19.1711 -0.565474 21.8185 1.88951L22.005 2.06914C24.5798 4.64387 23.9489 9.79014 21.4939 12.4375L21.171 12.7788L20.8115 13.1454C19.4262 14.5366 17.3029 16.4413 14.4416 18.8594L12.8077 20.2293C12.2439 20.6986 11.4234 20.6913 10.8681 20.212L8.85115 18.4612L7.05542 16.8815C4.92092 14.9887 3.31874 13.5074 2.24888 12.4375C-0.387159 9.80151 -0.894471 4.70518 1.74157 2.06914C4.37761 -0.5669 8.58142 -0.746533 11.2175 1.88951Z" fill="#FB3958"/>
<path d="M10.118 2.91183C8.11137 0.947647 4.88666 1.04537 2.80223 3.1298C0.866398 5.06563 1.138 9.20535 3.30954 11.3769L3.69885 11.7613C4.79575 12.832 6.36239 14.2676 8.39319 16.0625L9.83442 17.3285L11.8481 19.0764L13.4734 17.7138L14.6405 16.7208C16.8845 14.7978 18.5864 13.2537 19.7348 12.1012L20.0815 11.7477L20.394 11.4176C22.4744 9.17411 22.7839 4.96937 20.9645 3.14958L20.7986 2.98939C18.6838 1.02838 15.6145 1.00055 13.6886 2.92588L11.8111 4.89048L10.118 2.91183Z" fill="#FB3958"/>
</svg>
