<svg width="21" height="24" viewBox="0 0 21 24" fill="none" xmlns="http://www.w3.org/2000/svg">
<path d="M0 22.1524V0.5C0 0.223858 0.223858 0 0.5 0H20.0015C20.2776 0 20.5015 0.223858 20.5015 0.5V22.1524C20.5015 22.7047 20.0538 23.1524 19.5015 23.1524C19.2387 23.1524 18.9865 23.049 18.7994 22.8645L10.2507 14.4353L1.70211 22.8645C1.30885 23.2522 0.6757 23.2478 0.287934 22.8545C0.103434 22.6674 0 22.4152 0 22.1524Z" fill="#262626"/>
<path d="M1.5 1.5V20.9572L9.54863 13.0211C9.93798 12.6372 10.5635 12.6372 10.9529 13.0211L19.0015 20.9572V1.5H1.5Z" fill="#262626"/>
</svg>
